#!OML:ASF H:\Terrain\Patient Classification 1\Animal2\Wednesday\Animal2.ASF
:FULLY-SPECIFIED
:DEGREES
143
root 24.7217 16.5963 -33.6073 47.984 -20.6511 5.68736
lowerback 28.8031 -0.807373 3.78946
upperback -3.88581 0.384386 0.389682
thorax -20.0751 -0.243615 -1.83032
lowerneck 2.17365 8.48812 14.8304
upperneck -10.9508 10.1168 -30.6455
head -0.788704 5.85206 -12.4357
rclavicle 1.82882e-014 -1.03368e-014
rhumerus -27.1295 -5.35593 -62.8606
rradius 74.5781
rwrist 2.96745
rhand -28.1028 26.763
rfingers 7.12502
rthumb -1.48517 -3.21159
lclavicle 1.82882e-014 -1.03368e-014
lhumerus -60.6846 5.94866 71.2079
lradius 39.3106
lwrist 11.6987
lhand -10.6878 28.1822
lfingers 7.12502
lthumb 15.3212 57.5947
rfemur -83.4478 -4.69131 5.06083
rtibia 50.5788
rfoot -19.5034 -6.33946
rtoes -10.5924
lfemur -86.2026 5.06221 -17.58
ltibia 46.446
lfoot -1.50161 -4.09833
ltoes -32.1819
144
root 24.731 16.5504 -33.6404 48.5197 -20.4166 5.70998
lowerback 28.6983 -0.802608 3.67146
upperback -3.9838 0.379847 0.55909
thorax -20.149 -0.221571 -1.57131
lowerneck 2.35864 8.44158 14.6191
upperneck -11.0002 10.0508 -30.4369
head -0.883616 5.83438 -12.336
rclavicle -2.62396e-014 7.15625e-015
rhumerus -27.4153 -5.29492 -63.2797
rradius 73.9069
rwrist 3.45873
rhand -28.582 27.3931
rfingers 7.12502
rthumb -1.94802 -2.57771
lclavicle -2.62396e-014 7.15625e-015
lhumerus -60.2878 5.77895 71.7046
lradius 40.4566
lwrist 12.0168
lhand -11.6509 28.468
lfingers 7.12502
lthumb 14.3934 57.9489
rfemur -84.3725 -4.90955 5.1174
rtibia 51.0132
rfoot -19.5152 -6.49323
rtoes -10.0728
lfemur -87.0928 5.08631 -17.6635
ltibia 46.6523
lfoot -1.81798 -4.1888
ltoes -32.3892
145
root 24.7441 16.4946 -33.6766 49.3357 -20.1838 5.75185
lowerback 28.2024 -0.929053 3.57291
upperback -4.08216 0.183883 0.70223
thorax -20.0276 -0.278732 -1.27045
lowerneck 2.39527 8.53959 14.4291
upperneck -11.1154 10.1686 -30.2231
head -0.923288 5.90063 -12.2153
rclavicle -4.29375e-014 3.10104e-014
rhumerus -27.3911 -4.94568 -63.9796
rradius 73.1429
rwrist 3.94693
rhand -29.3485 27.2737
rfingers 7.12502
rthumb -2.68827 -2.68912
lclavicle -4.29375e-014 3.10104e-014
lhumerus -59.8794 5.83652 72.0165
lradius 41.7701
lwrist 12.4295
lhand -12.5207 28.537
lfingers 7.12502
lthumb 13.5552 58.0758
rfemur -85.6466 -5.29936 5.29314
rtibia 51.4285
rfoot -19.3793 -6.6166
rtoes -10.9144
lfemur -88.3331 5.0974 -17.7565
ltibia 46.8188
lfoot -2.10369 -4.25037
ltoes -33.0245
146
root 24.7536 16.4923 -33.6628 49.0113 -20.1925 5.45785
lowerback 28.7972 -0.821275 3.67597
upperback -3.77522 0.359343 0.583901
thorax -19.9333 -0.222303 -1.5355
lowerneck 1.97882 8.51962 15.1505
upperneck -10.887 10.198 -30.3222
head -0.721221 5.85303 -12.35
rclavicle -1.90833e-014 3.02153e-014
rhumerus -27.8414 -5.15646 -64.4049
rradius 72.6155
rwrist 4.18398
rhand -30.1611 27.2241
rfingers 7.12502
rthumb -3.473 -2.72733
lclavicle -1.90833e-014 3.02153e-014
lhumerus -59.031 5.12945 72.4189
lradius 43.2208
lwrist 12.8883
lhand -13.4151 28.714
lfingers 7.12502
lthumb 12.6931 58.3082
rfemur -85.3333 -5.1425 5.61792
rtibia 51.7034
rfoot -19.5656 -6.50638
rtoes -12.0091
lfemur -87.7947 5.00757 -17.0752
ltibia 46.9631
lfoot -2.67524 -3.73822
ltoes -33.4102
147
root 24.7544 16.4896 -33.6547 48.5674 -20.0954 5.20005
lowerback 29.6702 -0.772334 3.69743
upperback -3.5593 0.472034 0.611043
thorax -20.0984 -0.177507 -1.56416
lowerneck 1.95182 8.4542 15.5022
upperneck -10.7671 10.1513 -30.2739
head -0.676096 5.80756 -12.3962
rclavicle -1.59028e-014 -7.15625e-015
rhumerus -28.269 -5.23144 -64.8574
rradius 71.9575
rwrist 4.5083
rhand -30.688 28.1465
rfingers 7.12502
rthumb -3.98188 -1.79599
lclavicle -1.59028e-014 -7.15625e-015
lhumerus -58.48 4.65258 72.8503
lradius 44.7317
lwrist 13.4716
lhand -14.7441 29.0123
lfingers 7.12502
lthumb 11.4116 58.6817
rfemur -84.8417 -4.88768 5.81633
rtibia 51.928
rfoot -19.7321 -6.55407
rtoes -12.2249
lfemur -87.1272 4.94149 -16.5062
ltibia 47.0579
lfoot -3.26328 -3.44833
ltoes -33.9981
148
root 24.762 16.4476 -33.6743 49.0153 -20.0187 5.05341
lowerback 29.5647 -0.76527 3.55511
upperback -3.58855 0.443181 0.703855
thorax -20.0861 -0.166397 -1.36762
lowerneck 2.09705 8.43501 15.3741
upperneck -10.7794 10.1396 -29.9688
head -0.742805 5.80448 -12.2666
rclavicle 1.82882e-014 -1.19271e-014
rhumerus -28.4924 -5.07319 -65.4886
rradius 71.2134
rwrist 4.54337
rhand -31.0079 28.8483
rfingers 7.12502
rthumb -4.29075 -1.08827
lclavicle 1.82882e-014 -1.19271e-014
lhumerus -58.1325 4.64139 73.0672
lradius 46.306
lwrist 13.8758
lhand -15.3805 29.1691
lfingers 7.12502
lthumb 10.7978 58.8715
rfemur -85.5585 -4.89772 5.92671
rtibia 52.1984
rfoot -19.722 -6.61156
rtoes -11.7
lfemur -87.6859 5.07343 -16.3742
ltibia 47.1319
lfoot -3.67343 -3.41017
ltoes -34.4016
149
root 24.7723 16.4253 -33.6825 49.1539 -20.0309 4.94994
lowerback 29.6974 -0.799676 3.37866
upperback -3.53561 0.348614 0.764854
thorax -20.0925 -0.180332 -1.15851
lowerneck 2.26889 8.44794 15.1251
upperneck -10.793 10.1704 -29.5997
head -0.81735 5.82628 -12.0891
rclavicle -7.15625e-015 -7.07673e-014
rhumerus -28.7021 -4.69944 -66.1011
rradius 70.4991
rwrist 4.3896
rhand -31.5353 28.9762
rfingers 7.12502
rthumb -4.79999 -0.949382
lclavicle -7.15625e-015 -7.07673e-014
lhumerus -57.7111 4.89559 73.1614
lradius 47.8648
lwrist 14.0527
lhand -15.2587 29.5179
lfingers 7.12502
lthumb 10.9152 59.2142
rfemur -85.9061 -4.84203 5.90129
rtibia 52.5045
rfoot -19.8742 -6.61511
rtoes -10.8627
lfemur -87.7767 5.0186 -16.0564
ltibia 47.1425
lfoot -4.15032 -3.05683
ltoes -33.7603
